<?xml version="1.0" encoding="utf-8"?>
<svg fill="#000000" version="1.1" style="shape-rendering:geometricPrecision;text-rendering:geometricPrecision;image-rendering:optimizeQuality;" viewBox="31.827 118.695 139 20.87" x="0px" y="0px" fill-rule="evenodd" clip-rule="evenodd" xmlns="http://www.w3.org/2000/svg" xmlns:bx="https://boxy-svg.com">
  <defs>
    <style bx:fonts="Ubuntu">@import url(https://fonts.googleapis.com/css2?family=Ubuntu%3Aital%2Cwght%400%2C300%3B0%2C400%3B0%2C500%3B0%2C700%3B1%2C300%3B1%2C400%3B1%2C500%3B1%2C700&amp;display=swap);</style>
  </defs>
  <g style="" transform="matrix(0.034701, 0, 0, 0.034701, 41.999992, 125.447769)">
    <path class="fil0" d="M13 0l251 0 0 39 -25 21 0 -35 -214 0 0 214 214 0 0 -119 25 -32 0 176c-88,0 -176,0 -264,0l0 -264 13 0zm242 55c-36,30 -64,58 -96,97l-49 -70c-34,-3 -55,8 -62,40l112 88 165 -209c-24,17 -48,35 -70,54z"/>
  </g>
  <text style="white-space: pre; fill: rgb(51, 51, 51); font-family: Arial, sans-serif; font-size: 7.3px;" x="108.522" y="14.58">Enter your text here</text>
  <text style="fill: rgb(51, 51, 51); font-family: Ubuntu; font-size: 17px; white-space: pre;" x="31.555" y="134.702">E</text>
  <text style="fill: rgb(51, 51, 51); font-family: Ubuntu; font-size: 17px; white-space: pre;" x="52.392" y="133.901">erythingOnline</text>
  <text style="white-space: pre; fill: rgb(51, 51, 51); font-family: Arial, sans-serif; font-size: 7.3px;" x="342.783" y="174.754">Enter your text here</text>
</svg>